<?xml version="1.0" encoding="utf-8"?>
<!-- Generator: Adobe Illustrator 23.0.1, SVG Export Plug-In . SVG Version: 6.00 Build 0)  -->
<svg version="1.1" id="Capa_1" xmlns="http://www.w3.org/2000/svg" xmlns:xlink="http://www.w3.org/1999/xlink" x="0px" y="0px"
	 viewBox="0 0 467 362.16" style="enable-background:new 0 0 467 362.16;" xml:space="preserve">
<g>
	<path d="M103.85,53.58c-22.06,0-40,17.94-40,40s17.94,40,40,40s40-17.94,40-40S125.9,53.58,103.85,53.58z M103.85,113.58
		c-11.03,0-20-8.97-20-20s8.97-20,20-20s20,8.97,20,20S114.87,113.58,103.85,113.58z"/>
	<path d="M103.85,206.58c-22.06,0-40,17.94-40,40s17.94,40,40,40s40-17.94,40-40S125.9,206.58,103.85,206.58z M103.85,266.58
		c-11.03,0-20-8.97-20-20s8.97-20,20-20s20,8.97,20,20S114.87,266.58,103.85,266.58z"/>
	<path d="M409.98,215.41c-16.02-21.76-35.36-37.54-56.56-46.56c26.2-14.88,43.92-43.05,43.92-75.27c0-47.7-38.8-86.5-86.5-86.5h-207
		c-47.7,0-86.5,38.8-86.5,86.5c0,33.14,18.73,61.98,46.17,76.5c-27.43,14.52-46.17,43.36-46.17,76.5c0,47.7,38.8,86.5,86.5,86.5
		h97.81c5.52,0,10-4.48,10-10s-4.48-10-10-10H159.1c19.08-15.88,31.25-39.79,31.25-66.5c0-5.88-0.59-11.62-1.71-17.17
		c21.12,29.8,34.17,70.65,34.17,115.67c0,5.52,4.48,10,10,10h206.85c5.52,0,10-4.48,10-10
		C449.65,296.22,435.56,250.17,409.98,215.41z M310.85,27.08c36.67,0,66.5,29.83,66.5,66.5s-29.83,66.5-66.5,66.5H159.1
		c19.08-15.88,31.25-39.8,31.25-66.5s-12.17-50.62-31.25-66.5C159.1,27.08,310.85,27.08,310.85,27.08z M37.35,93.58
		c0-36.67,29.83-66.5,66.5-66.5s66.5,29.83,66.5,66.5s-29.83,66.5-66.5,66.5S37.35,130.25,37.35,93.58z M103.85,313.08
		c-36.67,0-66.5-29.83-66.5-66.5s29.83-66.5,66.5-66.5s66.5,29.83,66.5,66.5S140.51,313.08,103.85,313.08z M242.6,335.08
		c-1.79-45.12-15.64-87.29-39.47-119.67c-10.68-14.51-22.84-26.37-36.04-35.33h143.75c63.09,0,114.85,68.66,118.59,155H242.6z"/>
</g>
</svg>
