<?xml version="1.0" encoding="utf-8"?>
<!-- Generator: Adobe Illustrator 23.0.1, SVG Export Plug-In . SVG Version: 6.00 Build 0)  -->
<svg version="1.1" id="Capa_1" xmlns="http://www.w3.org/2000/svg" xmlns:xlink="http://www.w3.org/1999/xlink" x="0px" y="0px"
	 viewBox="0 0 467 362.16" style="enable-background:new 0 0 467 362.16;" xml:space="preserve">
<g>
	<path d="M408.03,197.54c0,49.49,0,98.97,0,148.46c0,7.62-3.72,10.47-11.19,8.35c-28.03-7.96-56.04-16-84.06-24
		c-6.1-1.74-12.32-3.15-18.3-5.27c-5.13-1.82-9.64,0.04-14.26,1.35c-32.88,9.36-65.65,19.1-98.66,27.94
		c-4.83,1.3-10.9-1.02-16.17-2.49c-32.62-9.16-65.2-18.51-97.75-27.91c-7.17-2.07-8.58-4.24-8.58-11.64
		c-0.01-98.14,0.03-196.28-0.08-294.42c-0.01-7.48,4.35-12.65,12.26-10.15C89.09,13.42,107.29,18,125.32,23.1
		c17.06,4.83,34.04,10,51.2,14.43c3.28,0.85,7.36-0.75,10.91-1.76c32.88-9.34,65.67-18.97,98.63-28.02
		c3.88-1.07,8.73,0.26,12.86,1.42c26.03,7.27,51.98,14.83,77.97,22.26c7.98,2.28,16,4.47,24.01,6.63c5.55,1.5,7.11,3.49,7.12,9.51
		C408.03,97.57,408.03,147.55,408.03,197.54z M186.14,51.38c0,95.54,0,190.81,0,286.44c32.09-9.13,63.98-18.19,95.64-27.19
		c0-95.69,0-190.87,0-286.45C249.7,33.3,217.95,42.33,186.14,51.38z M74.3,24.11c-0.11,2.24-0.27,3.97-0.27,5.71
		c-0.01,91.78,0.02,183.56-0.13,275.34c-0.01,4.15,1.42,5.82,5.09,6.86c17.4,4.9,34.73,10.02,52.13,14.93
		c12.94,3.66,25.93,7.12,39.9,10.94c0-2.42,0-4.31,0-6.21c0-91.45-0.04-182.89,0.11-274.34c0.01-4.49-1.5-6.25-5.61-7.4
		C135.44,41.54,105.4,32.94,74.3,24.11z M392.91,337.91c0-95.71,0-190.98,0-286.5c-31.89-9.05-63.72-18.08-95.7-27.16
		c0,95.83,0,191.09,0,286.43C329.13,319.76,360.91,328.8,392.91,337.91z"/>
	<path d="M256.89,160.05c4.56-0.27,7.44,1.36,8.03,5.43c0.56,3.82-0.32,7.28-4.73,8.56c-16.09,4.64-32.15,9.37-48.28,13.86
		c-4.53,1.26-8.1-1.15-9.25-5.78s1.88-7.42,5.47-8.51c15.7-4.76,31.54-9.09,47.34-13.54C256.07,159.9,256.78,160.05,256.89,160.05z"
		/>
	<path d="M265,288.04c-1.13,1.03-2.96,4.02-5.45,4.76c-15.75,4.7-31.64,8.93-47.5,13.23c-4.3,1.17-8.72-1.45-9.76-5.54
		c-0.85-3.32,1.63-7.15,5.9-8.41c10.61-3.13,21.28-6.07,31.93-9.07c5.18-1.46,10.36-2.89,15.56-4.29
		C260.91,277.31,265.09,280.62,265,288.04z"/>
	<path d="M265.06,206.56c0.04,4.05-2.32,6.38-5.89,7.4c-15.44,4.44-30.93,8.73-46.38,13.13c-4.76,1.35-8.27-0.39-9.8-5.07
		c-1.33-4.08,0.37-7.54,4.95-8.91c10.57-3.17,21.21-6.1,31.83-9.09c5.32-1.49,10.65-2.91,15.99-4.33
		C260.85,198.35,265.02,201.45,265.06,206.56z"/>
	<path d="M258.64,54.42c2.12,2.29,5.21,4.24,6.13,6.94c1.5,4.39-1.22,7.43-5.62,8.68c-11.72,3.34-23.45,6.65-35.18,9.97
		c-3.6,1.02-7.21,1.96-10.79,3.05c-4.99,1.52-9.22-0.49-10.73-5.21c-1.29-4.04,1.49-7.42,6.8-8.88
		c14.42-3.96,28.79-8.07,43.18-12.13c1.71-0.48,3.41-0.98,5.11-1.48C257.92,55.05,258.28,54.73,258.64,54.42z"/>
	<path d="M211.8,266.95c-5.99,0.24-8.95-2.11-9.35-6.34c-0.4-4.13,2.3-7.2,6.19-8.34c15.28-4.48,30.63-8.76,45.97-13.03
		c4.76-1.33,9.09,0.63,10.23,4.39c1.31,4.3-0.96,8.38-5.69,9.78c-15.27,4.53-30.56,8.97-45.86,13.4
		C212.36,267.08,211.32,266.99,211.8,266.95z"/>
	<path d="M91.03,114.8c0-16.31,0.33-32.64-0.14-48.94c-0.23-8.04,3.39-11.95,12.52-9.56c14.63,3.83,29.03,8.52,43.6,12.59
		c5.17,1.45,7.08,4.47,7.06,9.67c-0.1,33.29-0.04,66.59-0.06,99.88c0,8.04-4.04,10.88-11.68,8.69
		c-14.54-4.16-29.13-8.13-43.71-12.14c-4.26-1.17-7.84-4.2-7.72-9.76C91.25,148.43,91.03,131.62,91.03,114.8z M106.23,72.72
		c0,29.99,0,59.42,0,88.93c10.86,3.1,21.6,6.16,32.79,9.35c0-29.1,0.02-57.87-0.09-86.64c0-0.96-1.1-2.51-1.99-2.77
		C126.85,78.55,116.7,75.71,106.23,72.72z"/>
	<path d="M154.05,218.76c-0.1,6.33-4.43,10.02-8.72,8.83c-16.14-4.45-32.25-9-48.32-13.68c-4.62-1.34-6.97-5.66-5.69-9.5
		c1.35-4.04,4.87-5.76,9.8-4.43c15.86,4.29,31.76,8.5,47.48,13.28C151.14,214.04,152.86,217.51,154.05,218.76z"/>
	<path d="M145.04,267c-5.92-1.66-13.12-3.68-20.32-5.69c-8.77-2.45-17.64-4.62-26.26-7.51c-2.77-0.93-5.85-3.33-7.01-5.87
		c-0.78-1.72,0.92-5.55,2.68-7.16c1.58-1.44,5-2.04,7.19-1.46c15.41,4.06,30.73,8.48,46.05,12.88c4.77,1.37,7.24,4.72,6.6,8.45
		C153.37,264.26,150.08,267.03,145.04,267z"/>
	<path d="M153.99,298.26c0.14,5.66-3.75,9.17-8.26,7.98c-16.35-4.32-32.66-8.78-48.93-13.38c-4.4-1.25-6.66-5.46-5.59-9.16
		c1.26-4.37,4.76-6.16,10.06-4.69c15.35,4.25,30.64,8.71,45.99,12.94C151.22,293.04,153.41,295.36,153.99,298.26z"/>
	<path d="M314.03,233.2c0-16.98-0.02-33.95,0.01-50.93c0.01-6.88,3.7-9.5,10.22-7.65c14.87,4.22,29.79,8.22,44.65,12.48
		c6.65,1.91,7.26,3.9,7.2,9.31c-0.21,20.21-0.08,40.42-0.08,60.62c0,11.88,0,23.77,0,35.65c0,2.7,0.34,5.46-0.07,8.1
		c-0.66,4.26-4.22,6.5-8.53,5.35c-16.18-4.31-32.37-8.61-48.42-13.34c-2.99-0.88-5.11-3.62-5.06-7.66
		C314.14,267.82,314.03,250.51,314.03,233.2z M328.99,191.25c0,27.45,0,54.08,0,80.7c0,8.11,0,8.1,7.74,10.39
		c2.49,0.74,4.96,1.56,7.46,2.26c5.75,1.59,11.51,3.13,17.14,4.65c0.35-0.72,0.49-0.87,0.49-1.02c0.08-28.28,0.18-56.57,0.08-84.85
		c0-1.16-1.8-2.95-3.09-3.36C349.02,196.98,339.16,194.21,328.99,191.25z"/>
	<path d="M369.43,123.46c-5.35-1.35-10.25-2.49-15.09-3.84c-11.41-3.17-22.8-6.44-34.2-9.66c-4.75-1.34-7.27-5.67-5.95-10.25
		c1.03-3.57,4.99-5.69,9.16-4.51c15.92,4.52,31.83,9.08,47.68,13.82c5.75,1.72,7.34,8.74,2.94,12.45
		C372.71,122.53,370.84,122.87,369.43,123.46z"/>
	<path d="M376.02,76.32c0.06,4.79-4.28,8.58-8.69,7.34c-15.82-4.47-31.61-9.02-47.39-13.63c-5-1.46-7.25-4.99-5.8-9.62
		c1.24-3.96,4.4-5.48,8.49-4.39c9.6,2.54,19.18,5.13,28.76,7.75c6.28,1.71,12.56,3.44,18.81,5.29
		C373.74,70.09,376.36,72.07,376.02,76.32z"/>
	<path d="M377.11,154.69c-1.13,5.45-5.45,9.2-9.62,8.03c-15.94-4.49-31.86-9.07-47.75-13.73c-4.84-1.42-6.89-5.21-5.66-9.78
		c0.92-3.43,4.99-5.41,9.55-4.17c16,4.33,32,8.64,47.86,13.45C373.78,149.18,375.26,152.56,377.11,154.69z"/>
</g>
</svg>
