<?xml version="1.0" encoding="utf-8"?>
<!-- Generator: Adobe Illustrator 23.0.1, SVG Export Plug-In . SVG Version: 6.00 Build 0)  -->
<svg version="1.1" id="Capa_1" xmlns="http://www.w3.org/2000/svg" xmlns:xlink="http://www.w3.org/1999/xlink" x="0px" y="0px"
	 viewBox="0 0 254.63 362.16" style="enable-background:new 0 0 254.63 362.16;" xml:space="preserve">
<g>
	<path d="M180.61,216.87c3.71-1.5,7.05-2.85,10.4-4.21c2.25-0.91,4.44-2.02,6.75-2.72c4.27-1.29,6.73,0.13,7.59,4.32
		c0.52,2.54,0.44,5.14-0.96,7.45c-0.39,0.65-1.17,1.2-1.89,1.5c-3.72,1.57-7.5,3.01-11.23,4.55c-3.78,1.55-7.57,3.08-11.25,4.83
		c-0.62,0.3-1.05,1.64-1.06,2.5c-0.07,9.37-0.03,18.73-0.07,28.1c-0.01,1.03-0.17,2.19-0.67,3.05c-2.87,4.92-5.91,9.74-8.79,14.65
		c-1.92,3.29-3.58,6.73-5.5,10.01c-1.7,2.89-3.69,5.61-5.4,8.5c-1.94,3.28-3.63,6.71-5.58,9.99c-2.22,3.73-4.68,7.33-6.9,11.06
		c-2.86,4.81-5.49,9.75-8.38,14.54c-2.08,3.44-4.19,6.9-6.7,10.02c-2.72,3.4-7.5,2.56-9.69-1.32c-2.81-4.96-5.7-9.87-8.58-14.78
		c-3.9-6.67-7.78-13.34-11.74-19.97c-1.89-3.16-4.01-6.19-5.88-9.36c-1.36-2.31-2.4-4.82-3.74-7.14c-1.5-2.58-3.26-5.01-4.76-7.59
		c-1.41-2.43-2.6-4.99-3.95-7.46c-1.52-2.81-1.58-2.71-4.57-1.37c-3.32,1.49-6.73,2.77-10.1,4.15c-2.82,1.15-5.56,2.56-8.47,3.4
		c-1.61,0.46-3.61,0.34-5.24-0.16c-3.28-1-3.98-3.73-3.82-6.85c0.15-2.87,1.86-4.64,4.21-5.75c5.11-2.41,10.31-4.63,15.48-6.91
		c0.16-0.07,0.42,0.15,0.61,0.11c2.68-0.59,4.01-2.25,4.01-4.99c0-13.81-0.02-27.62,0.02-41.43c0.01-2.89,0.79-5.47,3.4-7.26
		c2.35-1.62,4.72-1.48,6.99-0.24c2.24,1.23,3.78,3.11,3.78,5.94c-0.02,12.14-0.01,24.29-0.01,36.43c0,3.33,0.03,3.24,3.09,1.91
		c3.82-1.66,7.78-3.01,11.63-4.6c3.85-1.59,7.64-3.32,11.48-4.95c2.58-1.09,5.19-2.1,7.77-3.17c2.33-0.97,4.67-1.91,6.95-2.97
		c2.69-1.25,5.27-2.74,8-3.9c3.77-1.6,7.65-2.93,11.44-4.47c4.4-1.79,8.75-3.69,13.12-5.55c3.79-1.61,3.79-1.61,3.79-5.98
		c0-12.7,0-25.4,0-38.1c0-3.25,2.8-6.39,5.34-6.67c5.86-0.63,8.65,3.64,8.63,7.12c-0.09,10.91-0.12,21.81-0.13,32.72
		C179.99,214.79,180.36,215.73,180.61,216.87z M127.86,326.75c1.41-2.79,2.34-4.92,3.52-6.91c3.47-5.85,7.08-11.61,10.55-17.45
		c1.78-3,3.29-6.17,5.07-9.18c2.52-4.26,5.24-8.4,7.75-12.67c2.26-3.83,4.01-8.01,6.62-11.58c3.32-4.55,5.46-9.16,4.85-14.95
		c-0.34-3.29-0.06-6.66-0.06-9.99c0-1.56,0-3.13,0-5.03c-1.14,0.33-1.97,0.48-2.72,0.81c-2.48,1.09-4.9,2.32-7.4,3.37
		c-5.33,2.26-10.73,4.37-16.04,6.69c-6.39,2.79-12.69,5.8-19.09,8.58c-6.67,2.89-13.43,5.58-20.12,8.44
		c-1.69,0.72-3.28,1.71-4.87,2.64c-0.32,0.19-0.72,0.84-0.62,1.03c1.34,2.58,2.73,5.13,4.19,7.65c2.86,4.95,5.81,9.84,8.66,14.8
		c2.69,4.67,5.27,9.41,7.95,14.09c2.31,4.02,4.67,8.02,7.04,12C124.53,321.45,126,323.75,127.86,326.75z"/>
	<path d="M126.99,15c15.08,0,30.16,0,45.24,0c4.57,0,7.15,2.62,7.15,7.26c0,12.7-0.01,25.4,0.01,38.09c0,2.58,0.64,2.83,2.98,1.84
		c4.78-2.03,9.5-4.32,14.47-5.71c5.31-1.49,9.85,1.69,9.66,7.43c-0.1,3.07-2.29,4.74-4.83,5.91c-4.24,1.95-8.51,3.81-12.77,5.7
		c-3.83,1.7-7.67,3.38-11.5,5.08c-5.06,2.23-10.09,4.51-15.17,6.69c-2.78,1.19-5.67,2.14-8.43,3.36c-3.13,1.39-6.14,3.07-9.28,4.44
		c-3.71,1.62-7.53,3-11.28,4.55c-4.99,2.07-9.96,4.19-14.94,6.3c-5.17,2.19-10.35,4.37-15.5,6.61c-4.17,1.82-8.27,3.77-12.44,5.57
		c-2.59,1.12-5.3,1.96-7.89,3.09c-4.08,1.79-8.08,3.76-12.15,5.58c-2.61,1.17-5.26,2.26-7.94,3.28c-1.59,0.61-3.24,1.33-4.9,1.43
		c-3.36,0.2-6.46-2.62-7.14-6.08c-0.62-3.17,1.19-6.17,4.42-7.59c4.94-2.18,9.84-4.45,14.77-6.65c1.06-0.47,2.14-1.08,3.26-1.2
		c2.37-0.26,1.95-1.9,1.95-3.38c0-27.86-0.01-55.71,0.02-83.57c0-3.3,0.98-6.21,4.4-7.6c0.53-0.22,1.11-0.42,1.67-0.42
		C96.2,15,111.6,15,126.99,15z M89.36,103.19c1.2-0.35,2.18-0.54,3.08-0.93c1.55-0.67,3.01-1.56,4.57-2.2
		c4.17-1.73,8.38-3.36,12.55-5.08c3.97-1.64,7.92-3.34,11.87-5.03c2.45-1.05,4.91-2.09,7.34-3.17c2.46-1.09,4.87-2.29,7.35-3.34
		c4.2-1.79,8.46-3.46,12.66-5.25c2.47-1.05,4.86-2.29,7.33-3.33c2.67-1.13,5.46-2.01,8.06-3.26c0.86-0.42,1.89-1.66,1.89-2.53
		c0.12-12.69,0.08-25.38,0.08-38.07c0-1.56-0.79-2.32-2.34-2.3c-1.65,0.03-3.3,0.11-4.95,0.11c-9.59-0.01-19.18-0.04-28.77-0.06
		c-12.59-0.02-25.18-0.01-37.77-0.08c-2.16-0.01-3.03,0.59-3.02,2.96c0.08,23,0.05,46,0.05,69.01
		C89.36,101.34,89.36,102.04,89.36,103.19z"/>
	<path d="M166.16,125.47c0-6.27-0.01-12.54,0-18.81c0.01-4.5,2.64-6.98,7.25-6.88c3.91,0.09,6.66,3.29,6.63,7.32
		c-0.07,10.56,0,21.12,0,31.67c0,1.42,0.55,1.97,1.92,1.41c2.76-1.12,5.51-2.29,8.28-3.4c3.13-1.25,6.22-2.67,9.45-3.58
		c2.83-0.8,5.72,1.32,6.69,4.34c0.92,2.85-0.63,6.52-3.23,7.67c-7.17,3.18-14.33,6.39-21.51,9.55c-6.42,2.83-12.86,5.62-19.3,8.41
		c-6.96,3.02-13.93,6.01-20.9,9.01c-5.59,2.41-11.18,4.81-16.77,7.21c-5.79,2.49-11.61,4.92-17.36,7.5
		c-5.27,2.36-10.42,4.99-15.72,7.3c-3.61,1.57-7.43,2.67-11.07,4.19c-4.87,2.04-9.57,4.51-14.51,6.39
		c-3.53,1.34-6.78,4.18-11.09,2.68c-2.1-0.73-4.24-3.15-4.5-5.68c-0.27-2.62,0.4-5,2.86-6.22c3.85-1.92,7.83-3.55,11.76-5.29
		c2.46-1.09,4.93-2.15,7.4-3.22c1.56-0.68,2.31-1.69,2.3-3.58c-0.09-14.2-0.08-28.41-0.02-42.61c0.01-3.04,1.02-5.74,3.99-7.18
		c4.3-2.1,10.22,1.03,10.19,5.99c-0.09,12.06-0.03,24.12-0.03,36.18c0,3.4,0.16,3.6,3.32,2.27c6.62-2.77,13.15-5.77,19.77-8.53
		c4.46-1.86,9.05-3.41,13.54-5.21c2.91-1.17,5.72-2.59,8.61-3.83c3.72-1.59,7.48-3.07,11.2-4.64c2.68-1.14,5.32-2.38,8-3.52
		c2.93-1.25,5.85-2.54,8.83-3.64c3.81-1.4,4-1.56,4-5.89C166.16,137.05,166.16,131.26,166.16,125.47z"/>
</g>
</svg>
