<?xml version="1.0" encoding="utf-8"?>
<!-- Generator: Adobe Illustrator 23.0.1, SVG Export Plug-In . SVG Version: 6.00 Build 0)  -->
<svg version="1.1" id="Layer_1" xmlns="http://www.w3.org/2000/svg" xmlns:xlink="http://www.w3.org/1999/xlink" x="0px" y="0px"
	 viewBox="0 0 168 189" style="enable-background:new 0 0 168 189;" xml:space="preserve">
<style type="text/css">
	.st0{fill:#00AEEF;}
	.st1{fill:#939598;}
	.st2{fill:#EC008C;}
</style>
<g>
	<g>
		<polygon class="st0" points="28.34,26.31 28.34,45.99 23.63,45.99 23.63,21.6 41.73,21.6 41.73,26.31 		"/>
		<polygon class="st1" points="139.66,137.62 139.66,117.94 144.37,117.94 144.37,142.34 126.27,142.34 126.27,137.62 		"/>
		<polygon class="st2" points="139.66,26.31 139.66,45.99 144.37,45.99 144.37,21.6 126.27,21.6 126.27,26.31 		"/>
		<g>
			<path d="M33.44,77.25H23.7v24.4h4.71v-8.31h5.03c4.96,0,8.47-3.34,8.47-8.06C41.9,80.59,38.4,77.25,33.44,77.25z M32.73,89.59
				h-4.32v-8.64h4.32c2.69,0,4.53,1.81,4.53,4.32C37.26,87.82,35.42,89.59,32.73,89.59z"/>
			<path d="M64.38,101.65h5.14L63,92.03c3.33-0.73,5.49-3.49,5.49-7.12c0-4.5-3.4-7.66-8.18-7.66h-9.91v24.4h4.71v-8.9h3.5
				L64.38,101.65z M55.1,80.95h4.5c2.48,0,4.25,1.67,4.25,4.03c0,2.43-1.77,4.03-4.25,4.03h-4.5V80.95z"/>
			<rect x="79.11" y="77.25" width="4.71" height="24.4"/>
			<rect x="48.85" y="117.94" width="4.71" height="24.4"/>
			<polygon points="90.75,131.63 101.16,131.63 101.16,128.07 90.75,128.07 90.75,121.57 102.3,121.57 102.3,117.94 86.04,117.94 
				86.04,142.34 102.86,142.34 102.86,138.71 90.75,138.71 			"/>
			<polygon points="111.31,77.25 111.31,94.54 99.17,77.45 99.17,77.25 94.45,77.25 94.45,101.65 99.17,101.65 99.17,84.36 
				111.31,101.45 111.31,101.65 116.02,101.65 116.02,77.25 			"/>
			<polygon points="28.34,117.94 23.63,117.94 23.63,142.34 41.73,142.34 41.73,137.62 28.34,137.62 			"/>
			<polygon points="62.86,117.94 62.86,142.34 67.57,142.34 67.57,142.34 67.57,132 77.98,132 77.98,128.27 67.57,128.27 
				67.57,121.64 79.11,121.64 79.11,117.94 			"/>
			<polygon points="124.54,77.25 124.54,81.96 132.08,81.96 132.08,101.65 136.79,101.65 136.79,81.96 144.3,81.96 144.3,77.25 			
				"/>
		</g>
	</g>
	<g>
		<path d="M23.63,160.33c-0.04,0-0.08,0.03-0.08,0.08v6.87c0,0.04,0.03,0.08,0.08,0.08h0.84c0.04,0,0.08-0.03,0.08-0.08v-6.13h3.96
			v6.13c0,0.04,0.03,0.08,0.08,0.08h0.85c0.04,0,0.08-0.03,0.08-0.08v-6.87c0-0.04-0.03-0.08-0.08-0.08H23.63z"/>
		<path d="M33.42,166.55v-2.4h3.15c0.04,0,0.08-0.03,0.08-0.08v-0.63c0-0.04-0.03-0.08-0.08-0.08h-3.15v-2.23h3.47
			c0.04,0,0.08-0.03,0.08-0.08v-0.65c0-0.04-0.03-0.08-0.08-0.08H32.5c-0.04,0-0.08,0.03-0.08,0.08v6.87c0,0.04,0.03,0.08,0.08,0.08
			h4.55c0.04,0,0.08-0.03,0.08-0.08v-0.65c0-0.04-0.03-0.08-0.08-0.08H33.42z"/>
		<path d="M43.55,160.33c-0.04,0-0.08,0.03-0.08,0.08v3.14c-0.72,0.16-1.38,0.24-1.96,0.24c-0.51,0-0.92-0.15-1.23-0.45
			c-0.31-0.31-0.47-0.68-0.47-1.15v-1.78c0-0.04-0.03-0.08-0.08-0.08H38.9c-0.04,0-0.08,0.03-0.08,0.08v1.84
			c0,0.69,0.24,1.26,0.7,1.7c0.47,0.44,1.08,0.67,1.81,0.67c0.67,0,1.37-0.08,2.15-0.25v2.91c0,0.04,0.03,0.08,0.08,0.08h0.85
			c0.04,0,0.08-0.03,0.08-0.08v-6.87c0-0.04-0.03-0.08-0.08-0.08H43.55z"/>
		<path d="M50.43,160.33h-0.79c-0.03,0-0.06,0.02-0.07,0.05l-2.83,6.87c-0.01,0.02-0.01,0.05,0.01,0.07
			c0.01,0.02,0.04,0.03,0.06,0.03h0.86c0.03,0,0.06-0.02,0.07-0.05l0.74-1.83h3.12l0.74,1.83c0.01,0.03,0.04,0.05,0.07,0.05h0.86
			c0.02,0,0.05-0.01,0.06-0.03c0.01-0.02,0.02-0.05,0.01-0.07l-2.83-6.87C50.49,160.35,50.46,160.33,50.43,160.33z M51.29,164.68
			h-2.52l1.26-3.11L51.29,164.68z"/>
		<path d="M54.4,160.33c-0.04,0-0.08,0.03-0.08,0.08v0.66c0,0.04,0.03,0.08,0.08,0.08h2.3v6.13c0,0.04,0.03,0.08,0.08,0.08h0.84
			c0.04,0,0.08-0.03,0.08-0.08v-6.13h2.3c0.04,0,0.08-0.03,0.08-0.08v-0.66c0-0.04-0.03-0.08-0.08-0.08H54.4z"/>
		<path d="M67.2,160.33c-0.04,0-0.08,0.03-0.08,0.08v2.94h-3.96v-2.94c0-0.04-0.03-0.08-0.08-0.08h-0.84
			c-0.04,0-0.08,0.03-0.08,0.08v6.87c0,0.04,0.03,0.08,0.08,0.08h0.84c0.04,0,0.08-0.03,0.08-0.08v-3.11h3.96v3.11
			c0,0.04,0.03,0.08,0.08,0.08h0.85c0.04,0,0.08-0.03,0.08-0.08v-6.87c0-0.04-0.03-0.08-0.08-0.08H67.2z"/>
		<path d="M73.98,163.13h-1.97v-2.72c0-0.04-0.03-0.08-0.08-0.08h-0.82c-0.04,0-0.08,0.03-0.08,0.08v6.87
			c0,0.04,0.03,0.08,0.08,0.08h2.86c0.65,0,1.19-0.2,1.62-0.59c0.43-0.39,0.65-0.9,0.65-1.53c0-0.63-0.21-1.13-0.65-1.52
			C75.17,163.33,74.63,163.13,73.98,163.13z M75.27,165.24c0,0.77-0.58,1.31-1.41,1.31h-1.85v-2.6h1.85
			C74.69,163.94,75.27,164.47,75.27,165.24z"/>
		<path d="M77.62,160.33c-0.04,0-0.08,0.03-0.08,0.08v6.87c0,0.04,0.03,0.08,0.08,0.08h0.84c0.04,0,0.08-0.03,0.08-0.08v-6.87
			c0-0.04-0.03-0.08-0.08-0.08H77.62z"/>
		<path d="M84.39,159.82c0.92,0,1.56-0.62,1.59-1.54c0-0.02-0.01-0.04-0.02-0.05c-0.01-0.01-0.03-0.02-0.05-0.02h-0.54
			c-0.04,0-0.07,0.03-0.08,0.07c-0.04,0.49-0.4,0.82-0.9,0.82c-0.5,0-0.86-0.33-0.9-0.82c0-0.04-0.04-0.07-0.07-0.07h-0.54
			c-0.02,0-0.04,0.01-0.05,0.02c-0.01,0.01-0.02,0.03-0.02,0.05C82.83,159.2,83.47,159.82,84.39,159.82z"/>
		<path d="M86.51,160.33c-0.02,0-0.05,0.01-0.06,0.03l-4.05,5.52v-5.48c0-0.04-0.03-0.08-0.08-0.08h-0.79
			c-0.04,0-0.08,0.03-0.08,0.08v6.87c0,0.04,0.03,0.08,0.08,0.08h0.83c0.02,0,0.05-0.01,0.06-0.03l4.05-5.52v5.48
			c0,0.04,0.03,0.08,0.08,0.08h0.79c0.04,0,0.08-0.03,0.08-0.08v-6.87c0-0.04-0.03-0.08-0.08-0.08H86.51z"/>
		<path d="M95.65,160.21c-0.84,0-1.63,0.25-2.35,0.75c-0.03,0.02-0.04,0.07-0.02,0.1l0.35,0.57c0.01,0.02,0.03,0.03,0.05,0.03
			c0.02,0,0.04,0,0.06-0.01c0.6-0.42,1.19-0.63,1.82-0.63c0.71,0,1.28,0.22,1.75,0.67c0.45,0.43,0.71,0.98,0.79,1.68h-3.68
			c-0.04,0-0.08,0.03-0.08,0.08v0.63c0,0.04,0.03,0.08,0.08,0.08h3.7c-0.04,0.72-0.3,1.33-0.75,1.79c-0.47,0.48-1.06,0.71-1.8,0.71
			c-0.63,0-1.22-0.21-1.82-0.63c-0.02-0.01-0.04-0.02-0.06-0.01c-0.02,0-0.04,0.02-0.05,0.03l-0.35,0.57
			c-0.02,0.03-0.01,0.08,0.02,0.1c0.72,0.5,1.51,0.75,2.35,0.75c1.02,0,1.86-0.34,2.49-1.02c0.65-0.69,0.97-1.54,0.97-2.62
			s-0.32-1.93-0.97-2.62C97.51,160.55,96.67,160.21,95.65,160.21z"/>
		<path d="M103.75,163.72l2.81-3.27c0.02-0.02,0.02-0.05,0.01-0.08c-0.01-0.03-0.04-0.04-0.07-0.04h-0.95
			c-0.02,0-0.04,0.01-0.06,0.03l-2.58,2.99h-0.81v-2.94c0-0.04-0.03-0.08-0.08-0.08h-0.82c-0.04,0-0.08,0.03-0.08,0.08v6.87
			c0,0.04,0.03,0.08,0.08,0.08h0.82c0.04,0,0.08-0.03,0.08-0.08v-3.11h0.84l2.69,3.15c0.01,0.02,0.04,0.03,0.06,0.03h0.97
			c0.03,0,0.06-0.02,0.07-0.04c0.01-0.03,0.01-0.06-0.01-0.08L103.75,163.72z"/>
		<path d="M111.71,161.06c0.63,0,1.22,0.2,1.81,0.62c0.02,0.01,0.04,0.02,0.06,0.01c0.02,0,0.04-0.02,0.05-0.03l0.36-0.57
			c0.02-0.03,0.01-0.08-0.02-0.1c-0.74-0.51-1.54-0.77-2.37-0.77c-1.03,0-1.87,0.34-2.5,1.01c-0.64,0.68-0.96,1.56-0.96,2.62
			s0.32,1.94,0.96,2.62c0.63,0.67,1.48,1.02,2.5,1.02c0.83,0,1.63-0.26,2.37-0.77c0.03-0.02,0.04-0.07,0.02-0.1l-0.36-0.57
			c-0.01-0.02-0.03-0.03-0.05-0.03c-0.02,0-0.04,0-0.06,0.01c-0.59,0.42-1.18,0.62-1.81,0.62c-0.76,0-1.38-0.26-1.85-0.76
			c-0.47-0.52-0.71-1.2-0.71-2.02c0-0.82,0.24-1.51,0.71-2.03C110.33,161.32,110.95,161.06,111.71,161.06z"/>
		<path d="M116.37,160.33c-0.04,0-0.08,0.03-0.08,0.08v6.87c0,0.04,0.03,0.08,0.08,0.08h0.84c0.04,0,0.08-0.03,0.08-0.08v-6.13h3.96
			v6.13c0,0.04,0.03,0.08,0.08,0.08h0.85c0.04,0,0.08-0.03,0.08-0.08v-6.87c0-0.04-0.03-0.08-0.08-0.08H116.37z"/>
		<path d="M126.15,166.55v-2.4h3.15c0.04,0,0.08-0.03,0.08-0.08v-0.63c0-0.04-0.03-0.08-0.08-0.08h-3.15v-2.23h3.47
			c0.04,0,0.08-0.03,0.08-0.08v-0.65c0-0.04-0.03-0.08-0.08-0.08h-4.39c-0.04,0-0.08,0.03-0.08,0.08v6.87
			c0,0.04,0.03,0.08,0.08,0.08h4.55c0.04,0,0.08-0.03,0.08-0.08v-0.65c0-0.04-0.03-0.08-0.08-0.08H126.15z"/>
		<path d="M134.97,160.33h-2.59c-0.04,0-0.08,0.03-0.08,0.08v6.87c0,0.04,0.03,0.08,0.08,0.08h0.82c0.04,0,0.08-0.03,0.08-0.08
			v-2.49h1.69c0.68,0,1.25-0.21,1.7-0.62c0.45-0.41,0.68-0.95,0.68-1.6c0-0.66-0.22-1.2-0.67-1.61
			C136.23,160.54,135.66,160.33,134.97,160.33z M133.27,161.15h1.57c0.44,0,0.81,0.14,1.09,0.41c0.28,0.26,0.42,0.61,0.42,1.02
			c0,0.41-0.14,0.74-0.43,1.01c-0.28,0.26-0.64,0.39-1.09,0.39h-1.57V161.15z"/>
		<path d="M144.37,160.33h-5.58c-0.04,0-0.08,0.03-0.08,0.08v0.66c0,0.04,0.03,0.08,0.08,0.08h2.3v6.13c0,0.04,0.03,0.08,0.08,0.08
			H142c0.04,0,0.08-0.03,0.08-0.08v-6.13h2.3c0.04,0,0.08-0.03,0.08-0.08v-0.66C144.45,160.37,144.41,160.33,144.37,160.33z"/>
	</g>
</g>
<g>
</g>
<g>
</g>
<g>
</g>
<g>
</g>
<g>
</g>
<g>
</g>
</svg>
