<?xml version="1.0" encoding="utf-8"?>
<!-- Generator: Adobe Illustrator 23.0.1, SVG Export Plug-In . SVG Version: 6.00 Build 0)  -->
<svg version="1.1" id="Capa_1" xmlns="http://www.w3.org/2000/svg" xmlns:xlink="http://www.w3.org/1999/xlink" x="0px" y="0px"
	 viewBox="0 0 467 362.2" style="enable-background:new 0 0 467 362.2;" xml:space="preserve">
<style type="text/css">
	.st0{fill:none;stroke:#000000;stroke-width:16;stroke-miterlimit:10;}
</style>
<path d="M368.5,219.2c0-10.4,0-20.8,0-31.2c0-9.5-1.6-18.8-3.6-28.1c-2.9-13.2-7.7-25.8-14.5-37.5c-4.7-8.1-10.4-15.7-16.1-23.2
	c-3.7-4.7-8.1-8.9-12.4-13.1C311,76,298.7,68,285.3,61.6c-12.5-5.9-25.5-9.9-39.2-12.1c-8.7-1.4-17.4-1.7-26.2-1.7
	c-19.5,0.1-39,0-58.5,0c-6.4,0-11.1-4.3-11-10.1c0.1-6.7,4.2-10.5,10.5-10.5c21.8-0.2,43.6-0.4,65.5,0c16.3,0.3,32.3,2.9,47.8,8.1
	c18.4,6.1,35.5,14.7,50.5,27c7.5,6.1,14.7,12.5,21.2,19.6c12.2,13.2,21.8,28.3,29.1,44.9c5.5,12.5,9.2,25.4,11.7,38.7
	c1.1,6,1.7,12.2,1.8,18.4c0.4,23.6,0.5,47.2,0.6,70.8c0,7.4-4.2,10.8-9.9,11.2c-6.2,0.5-10.8-4.3-10.8-10.9
	C368.4,243.1,368.5,231.1,368.5,219.2z"/>
<path d="M368.5,315c0-5.9,0.3-11.6-0.1-17.4c-0.4-6,3.2-9.2,7-12.5c0.4-0.4,1.3-0.4,1.9-0.3c2,0.3,4.1,0.7,6.1,1.1
	c0.5,0.1,1.3,0.3,1.5,0.7c1.5,3.3,4,6.6,4.2,10c0.6,10.2,0.2,20.4,0.2,30.5c0,4.6-4.9,8.9-10.4,8.9c-10.2,0.1-20.4,0.1-30.6,0
	c-3.6,0-10-4.2-10.4-7.5c-0.4-2.7,0.6-5.7,1.3-8.5c0.2-0.8,1.7-1.3,2.6-1.8c3.8-2.3,7.9-3.3,12.5-3c4.4,0.3,8.8,0.1,13.3,0
	C367.7,315.3,367.9,315.2,368.5,315z"/>
<path d="M93.5,48.2c0,5.9-0.2,11.9,0.1,18c0.3,5.6-3.2,8.7-7,11.6c-0.7,0.6-2.3,0.3-3.4,0.1C81,77.4,78,77.4,77,76
	c-2-2.7-3.9-6.2-4.1-9.4c-0.5-9.6-0.2-19.2-0.2-28.8c0-5.8,4.9-10.7,10.8-10.7c9.7-0.1,19.4,0.1,29.1-0.1c5.5-0.1,8.1,4,11.2,7.3
	c0.5,0.5-0.1,2.2-0.4,3.2c-0.5,2.1-0.5,5.2-1.9,6.1c-3,2-6.7,3.6-10.3,4.1c-5.6,0.7-11.3,0.2-17,0.2C94.1,47.9,93.9,48,93.5,48.2z"
	/>
<path d="M93.5,315.3c6.1,0,12,0.3,17.8-0.1c5.8-0.3,8.7,3.6,11.8,7.2c0.6,0.7,0.1,2.7-0.2,4c-0.4,2-0.5,4.8-1.7,5.6
	c-2.9,1.9-6.4,3.7-9.8,3.9c-8.7,0.5-17.5,0.2-26.2,0.2c-7.5,0-12.5-4-12.5-12.3c0-8.9,0.3-17.9-0.1-26.8c-0.2-5.8,3.6-8.6,7.1-11.9
	c0.4-0.4,1.4-0.2,2.1-0.1c1.8,0.3,3.5,0.6,5.3,0.9c0.7,0.1,1.8,0.3,2,0.8c1.5,3.4,3.7,6.8,4.1,10.3C94,302.9,93.5,308.9,93.5,315.3z
	"/>
<path d="M170.4,335.8c-3.6,0-7.3,0-10.9,0c-3.3,0-4.8-2.7-6.8-4.6c-3.7-3.6-0.9-7.5-0.6-11.3c0-0.2,0.3-0.4,0.6-0.5
	c3.8-1.6,7-4.4,11.6-4.1c5,0.3,10,0.2,15,0c5.5-0.2,8.2,3.9,11.2,7.2c0.6,0.7-0.1,2.7-0.3,4.1c-0.4,1.9-0.4,4.6-1.6,5.4
	c-2.8,1.9-6.2,3.2-9.5,4c-2.7,0.6-5.7,0.1-8.6,0.1C170.4,336,170.4,335.9,170.4,335.8z"/>
<path d="M295.2,336.1c-2.7,0-5.4-0.1-8.1,0c-4.3,0.2-7.1-1.9-9.9-5c-3.4-3.9-0.6-7.6-0.4-11.3c0-0.2,0.6-0.4,0.9-0.6
	c4.2-2.2,8.2-4.5,13.4-3.9c5.4,0.6,10.9,0.2,16.3,0.8c1.8,0.2,3.2,2.3,4.9,3.4c3.1,2.1,3.5,4.9,2.4,8.2c-0.5,1.6-0.6,3.9-1.7,4.5
	c-2.8,1.7-6,3.1-9.2,3.8C301,336.6,298,336.1,295.2,336.1z"/>
<path d="M93.8,245.7c-0.3,3.9-0.1,7.9-1,11.6c-0.5,2.1-2.6,3.7-4,5.6c-1.5,2-3.2,2.9-5.8,1.9c-1.3-0.5-2.8-0.4-4.2-0.7
	c-0.6-0.1-1.6-0.4-1.8-0.8c-1.5-3.5-3.6-7-4.1-10.7c-0.7-5.1,0.1-10.4-0.3-15.5c-0.4-5.8,3.7-8.6,7.1-11.9c0.4-0.3,1.3-0.3,1.9-0.2
	c1.8,0.3,3.7,0.6,5.5,1.1c0.8,0.2,1.9,0.5,2.2,1.1c1.6,3.8,4.7,7,4.2,11.6c-0.2,2.3,0,4.6,0,6.9C93.6,245.7,93.7,245.7,93.8,245.7z"
	/>
<path d="M232.9,336.3c-3.9-0.3-7.8-0.8-11.7-0.7c-3,0-4-2.4-5.6-3.9c-1.1-1-2.5-2.4-2.5-3.6c0.1-2.8,0.9-5.5,1.4-8.3
	c0-0.2,0.4-0.4,0.6-0.5c3.8-1.7,7.2-4.5,11.9-4.1c4.9,0.4,9.8,0.2,14.7,0.1c5.5-0.2,8.1,4,11.1,7.3c0.6,0.6-0.1,2.5-0.4,3.8
	c-0.4,1.9-0.4,4.6-1.6,5.4c-2.9,2-6,4.3-9.9,4.3c-2.7,0-5.4,0-8.1,0C232.9,336.2,232.9,336.2,232.9,336.3z"/>
<path d="M72.5,120.2c0.3-4-0.2-8.2,1.1-11.9c1.1-3,3.9-5.8,6.7-7.7c1.3-0.9,4.1,0.8,6.2,0.8c2.8,0,3.2,2,4.3,3.7
	c2.3,3.7,3.1,7.6,2.8,11.9c-0.3,5.1-0.1,10.3-0.8,15.4c-0.3,1.9-2.3,3.7-3.7,5.4c-1.5,1.9-3.1,3.5-6,2.3c-2-0.8-5.1-0.5-6.1-1.9
	c-2-2.7-3.3-6.1-4.1-9.4c-0.6-2.7-0.1-5.7-0.1-8.6C72.6,120.2,72.6,120.2,72.5,120.2z"/>
<path d="M93.8,183.2c-0.3,4,0.2,8.2-1.1,11.9c-1.1,3-3.9,5.8-6.7,7.7c-1.2,0.9-4.1-0.6-6.2-0.8c-2.4-0.2-3.2-1.8-4.3-3.7
	c-2.2-3.8-3.1-7.6-2.8-12c0.4-5.1,0.1-10.3,0.8-15.4c0.3-2,2.5-3.8,3.9-5.6c1.5-2,3.3-3.2,6.1-2.1c1.9,0.8,5,0.6,5.9,1.9
	c2,3,3.3,6.5,4.1,10c0.6,2.5,0.1,5.4,0.1,8C93.6,183.1,93.7,183.2,93.8,183.2z"/>
<line class="st0" x1="83.2" y1="129.1" x2="245.2" y2="129.1"/>
<line class="st0" x1="83.2" y1="191.1" x2="245.2" y2="191.1"/>
<line class="st0" x1="83.2" y1="254.9" x2="245.2" y2="254.9"/>
</svg>
